<?xml version="1.0" encoding="UTF-8"?><svg id="Calque_2" xmlns="http://www.w3.org/2000/svg" viewBox="0 0 711.15 695.09"><defs><style>.cls-1{fill:#3461b1;}.cls-2{fill:#024193;}</style></defs><g id="_Répétition_radiale_"><g id="_Répétition_radiale_-2"><path class="cls-1" d="M237.65,609.81c-8.32-29.57-16.14-63.07,0-89.36,11.92-19.31,34.39-30.02,56.7-35.77,11.5-2.96,40.28-5.48,66.69-22.35,39.34-25.06,51.36-47.46,51.36-47.46.97,14.32-4.21,31.12-8.47,44.7-4.46,14.34-10.5,28.16-17.98,41.24-14.87,26.02-35.32,48.87-59.43,67.1-26.23,19.79-56.7,34.07-88.86,41.89Z"/></g></g><g id="_Répétition_radiale_-3"><g id="_Répétition_radiale_-4"><path class="cls-1" d="M69.48,376.56c21.44-21.99,46.55-45.51,77.39-44.68,22.68.67,43.19,14.77,59.33,31.22,8.31,8.48,24.88,32.14,52.7,46.58,41.38,21.54,66.78,20.75,66.78,20.75-11.91,8-29.05,11.91-42.95,15.01-14.65,3.3-29.63,4.99-44.71,5.05-29.97.13-59.98-6.15-87.83-17.92-30.25-12.82-57.86-32.07-80.71-56.01Z"/></g></g><g id="_Répétition_radiale_-5"><g id="_Répétition_radiale_-6"><path class="cls-1" d="M187.4,114.29c29.76,7.58,62.69,17.56,77.38,44.68,10.76,19.98,8.81,44.79,2.63,66.99-3.19,11.44-15.4,37.62-13.99,68.93,2.03,46.6,15.42,68.21,15.42,68.21-12.89-6.32-24.84-19.21-34.48-29.69-10.19-11.04-19.13-23.17-26.73-36.2-15.1-25.89-24.66-55.02-28.39-85.02-4.02-32.61-1.16-66.14,8.15-97.9Z"/></g></g><g id="_Répétition_radiale_-7"><g id="_Répétition_radiale_-8"><path class="cls-1" d="M473.5,85.27c8.32,29.57,16.14,63.07,0,89.36-11.92,19.31-34.39,30.02-56.7,35.77-11.5,2.96-40.28,5.48-66.69,22.35-39.34,25.06-51.36,47.46-51.36,47.46-.97-14.32,4.21-31.12,8.47-44.7,4.46-14.34,10.5-28.16,17.98-41.24,14.87-26.02,35.32-48.87,59.43-67.1,26.23-19.79,56.7-34.07,88.86-41.89Z"/></g></g><g id="_Répétition_radiale_-9"><g id="_Répétition_radiale_-10"><path class="cls-1" d="M641.67,318.53c-21.44,21.99-46.55,45.51-77.39,44.68-22.68-.67-43.19-14.77-59.33-31.22-8.31-8.48-24.88-32.14-52.7-46.58-41.38-21.54-66.78-20.75-66.78-20.75,11.91-8,29.05-11.91,42.95-15.01,14.65-3.3,29.63-4.99,44.71-5.05,29.97-.13,59.98,6.15,87.83,17.92,30.25,12.82,57.86,32.07,80.71,56.01Z"/></g></g><g id="_Répétition_radiale_-11"><g id="_Répétition_radiale_-12"><path class="cls-1" d="M523.75,580.8c-29.76-7.58-62.69-17.56-77.38-44.68-10.76-19.98-8.81-44.79-2.63-66.99,3.19-11.44,15.4-37.62,13.99-68.93-2.03-46.6-15.42-68.21-15.42-68.21,12.89,6.32,24.84,19.21,34.48,29.69,10.19,11.04,19.13,23.17,26.73,36.2,15.1,25.89,24.66,55.02,28.39,85.02,4.02,32.61,1.16,66.14-8.15,97.9Z"/></g></g><g id="_Répétition_radiale_-13"><path class="cls-2" d="M393.04,526.95l5.43,15.62c22.38,64.35-12.41,123.03-78.83,140.74-20.52,5.47-73.26,11.78-73.26,11.78-1.23-6.29-2.72-17.78-2.24-23.98,1.67-21.58,13.28-41.65,32.26-53.16,12.22-7.41,27.07-10.73,40.55-16.27,48.14-19.79,70.41-63.11,76.08-74.72Z"/></g><g id="_Répétition_radiale_-14"><path class="cls-2" d="M218.94,469.7l-10.81,12.51c-44.54,51.55-112.76,50.77-161.3,2.1-15-15.03-46.83-57.56-46.83-57.56,4.84-4.21,14.04-11.25,19.65-13.93,19.52-9.34,42.71-9.33,62.16,1.36,12.52,6.88,22.83,18.08,34.37,26.99,41.21,31.8,89.86,29.42,102.75,28.53Z"/></g><g id="_Répétition_radiale_-15"><path class="cls-2" d="M181.47,290.29l-16.24-3.1c-66.91-12.8-100.35-72.27-82.47-138.64,5.52-20.51,26.43-69.33,26.43-69.33,6.06,2.08,16.76,6.54,21.89,10.05,17.85,12.23,29.43,32.32,29.9,54.52.3,14.28-4.25,28.81-6.19,43.26-6.93,51.59,19.45,92.53,26.67,103.25Z"/></g><g id="_Répétition_radiale_-16"><path class="cls-2" d="M318.11,168.13l-5.43-15.62c-22.38-64.35,12.41-123.03,78.83-140.74,20.52-5.47,73.26-11.78,73.26-11.78,1.23,6.29,2.72,17.78,2.24,23.98-1.67,21.58-13.28,41.65-32.26,53.16-12.22,7.41-27.07,10.73-40.55,16.27-48.14,19.79-70.41,63.11-76.08,74.72Z"/></g><g id="_Répétition_radiale_-17"><path class="cls-2" d="M492.22,225.39l10.81-12.51c44.54-51.55,112.76-50.77,161.3-2.1,15,15.03,46.83,57.56,46.83,57.56-4.84,4.21-14.04,11.25-19.65,13.93-19.52,9.34-42.71,9.33-62.16-1.36-12.52-6.88-22.83-18.08-34.37-26.99-41.21-31.8-89.86-29.42-102.75-28.53Z"/></g><g id="_Répétition_radiale_-18"><path class="cls-2" d="M529.68,404.8l16.24,3.1c66.91,12.8,100.35,72.27,82.47,138.64-5.52,20.51-26.43,69.33-26.43,69.33-6.06-2.08-16.76-6.54-21.89-10.05-17.85-12.23-29.43-32.32-29.9-54.52-.3-14.28,4.25-28.81,6.19-43.26,6.93-51.59-19.45-92.53-26.67-103.25Z"/></g></svg>